<svg width="34" height="30" viewBox="0 0 34 30" fill="none" xmlns="http://www.w3.org/2000/svg">
<path d="M30.3335 6.66667V3.33333C30.3335 1.495 28.8385 0 27.0002 0H5.3335C2.57683 0 0.333496 2.24333 0.333496 5V25C0.333496 28.6683 3.3235 30 5.3335 30H30.3335C32.1718 30 33.6668 28.505 33.6668 26.6667V10C33.6668 8.16167 32.1718 6.66667 30.3335 6.66667ZM5.3335 3.33333H27.0002V6.66667H5.3335C4.4135 6.66667 3.66683 5.91833 3.66683 5C3.66683 4.08167 4.4135 3.33333 5.3335 3.33333ZM30.3335 26.6667H5.3535C4.5835 26.6467 3.66683 26.3417 3.66683 25V9.69167C4.19016 9.88 4.74516 10 5.3335 10H30.3335V26.6667Z" fill="white"/>
</svg>
