<svg width="50" height="50" viewBox="0 0 50 50" fill="none" xmlns="http://www.w3.org/2000/svg">
<path opacity="0.3" d="M41.0568 49.144C30.3631 50.2853 19.6369 50.2853 8.94318 49.144C4.67911 48.6889 1.31111 45.3209 0.856018 41.0564C-0.285339 30.3627 -0.285339 19.6369 0.856018 8.94318C1.31111 4.67911 4.67911 1.31111 8.94318 0.856018C19.6369 -0.285339 30.3627 -0.285339 41.0564 0.856018C45.3209 1.31111 48.6889 4.67911 49.144 8.94318C50.2853 19.6369 50.2853 30.3627 49.144 41.0564C48.6889 45.3209 45.3213 48.6889 41.0568 49.144Z" fill="#E8E8E8"/>
<g clip-path="url(#clip0_130_99)">
<path d="M34.0944 38.6752C28.0375 39.3216 21.9622 39.3216 15.9053 38.6752C13.4901 38.4174 11.5825 36.5098 11.3247 34.0944C10.6782 28.0375 10.6782 21.9624 11.3247 15.9054C11.5825 13.4903 13.4901 11.5826 15.9053 11.3249C21.9622 10.6784 28.0373 10.6784 34.0942 11.3249C36.5096 11.5826 38.4172 13.4903 38.675 15.9054C39.3215 21.9624 39.3215 28.0375 38.675 34.0944C38.4172 36.5098 36.5098 38.4174 34.0944 38.6752Z" fill="white"/>
<path d="M22.8344 33.0756C23.9676 33.0702 25.1007 33.0319 26.2333 32.9609V25.0928H28.4885L28.7609 22.2653H26.2333V20.4699C26.2333 20.0734 26.5559 19.752 26.9539 19.752H28.7609V16.9244H25.9025C24.208 16.9244 22.8344 18.2932 22.8344 19.9817V22.2653H21.1831V25.0928H22.8344V33.0756Z" fill="#3B5998"/>
</g>
<defs>
<clipPath id="clip0_130_99">
<rect width="28.32" height="28.32" fill="white" transform="translate(10.8398 10.84)"/>
</clipPath>
</defs>
</svg>
