<svg width="50" height="50" viewBox="0 0 50 50" fill="none" xmlns="http://www.w3.org/2000/svg">
<path opacity="0.3" d="M41.0568 49.144C30.3631 50.2853 19.6369 50.2853 8.94318 49.144C4.67911 48.6889 1.31111 45.3209 0.856018 41.0564C-0.285339 30.3627 -0.285339 19.6369 0.856018 8.94318C1.31111 4.67911 4.67911 1.31111 8.94318 0.856018C19.6369 -0.285339 30.3627 -0.285339 41.0564 0.856018C45.3209 1.31111 48.6889 4.67911 49.144 8.94318C50.2853 19.6369 50.2853 30.3627 49.144 41.0564C48.6889 45.3209 45.3213 48.6889 41.0568 49.144Z" fill="#E8E8E8"/>
<g clip-path="url(#clip0_130_88)">
<path d="M17.4774 25C17.4774 23.5969 17.864 22.2825 18.5356 21.157V16.3831H13.7616C11.8669 18.8438 10.8398 21.8428 10.8398 25C10.8398 28.1572 11.8669 31.1562 13.7616 33.617H18.5356V28.843C17.864 27.7175 17.4774 26.4031 17.4774 25Z" fill="#FBBD00"/>
<path d="M24.9999 32.5226L21.6812 35.8414L24.9999 39.1602C28.1572 39.1602 31.1561 38.1331 33.6169 36.2384V31.4695H28.848C27.7127 32.1435 26.3928 32.5226 24.9999 32.5226Z" fill="#0F9D58"/>
<path d="M18.5357 28.843L13.7617 33.6169C14.1369 34.1041 14.5453 34.5707 14.9873 35.0128C17.6618 37.6872 21.2178 39.1602 25.0001 39.1602V32.5226C22.2552 32.5226 19.8495 31.0446 18.5357 28.843Z" fill="#31AA52"/>
<path d="M39.1602 25C39.1602 24.1385 39.0822 23.2754 38.9283 22.4348L38.8038 21.7545H25V28.392H31.7179C31.0655 29.6897 30.0625 30.7485 28.848 31.4695L33.6169 36.2384C34.1041 35.8633 34.5707 35.4548 35.0127 35.0128C37.6872 32.3382 39.1602 28.7823 39.1602 25Z" fill="#3C79E6"/>
<path d="M30.3192 19.6807L30.9059 20.2674L35.5994 15.5739L35.0127 14.9873C32.3382 12.3128 28.7823 10.8398 24.9999 10.8398L21.6812 14.1586L24.9999 17.4774C27.0092 17.4774 28.8983 18.2599 30.3192 19.6807Z" fill="#CF2D48"/>
<path d="M25.0001 17.4774V10.8398C21.2178 10.8398 17.6619 12.3128 14.9873 14.9872C14.5453 15.4292 14.1369 15.8958 13.7617 16.383L18.5357 21.157C19.8495 18.9554 22.2553 17.4774 25.0001 17.4774Z" fill="#EB4132"/>
</g>
<defs>
<clipPath id="clip0_130_88">
<rect width="28.3203" height="28.3203" fill="white" transform="translate(10.8398 10.8398)"/>
</clipPath>
</defs>
</svg>
