<svg width="348" height="285" viewBox="0 0 348 285" fill="none" xmlns="http://www.w3.org/2000/svg">
<circle cx="105.498" cy="124" r="123.458" stroke="black" stroke-opacity="0.04"/>
<g filter="url(#filter0_d_130_121)">
<circle cx="105.498" cy="124" r="78.5025" fill="#FFD370"/>
</g>
<path d="M49.44 83V111H41.52V100.08H30.72V111H22.8V83H30.72V93.52H41.52V83H49.44ZM76.8266 100.2C76.8266 100.253 76.7866 100.88 76.7066 102.08H60.9466C61.2666 103.2 61.8799 104.067 62.7866 104.68C63.7199 105.267 64.8799 105.56 66.2666 105.56C67.3066 105.56 68.1999 105.413 68.9466 105.12C69.7199 104.827 70.4932 104.347 71.2666 103.68L75.2666 107.84C73.1599 110.187 70.0799 111.36 66.0266 111.36C63.4932 111.36 61.2666 110.88 59.3466 109.92C57.4266 108.96 55.9332 107.627 54.8666 105.92C53.8266 104.213 53.3066 102.28 53.3066 100.12C53.3066 97.9867 53.8132 96.08 54.8266 94.4C55.8666 92.6933 57.2932 91.36 59.1066 90.4C60.9199 89.44 62.9599 88.96 65.2266 88.96C67.3866 88.96 69.3466 89.4133 71.1066 90.32C72.8666 91.2 74.2532 92.4933 75.2666 94.2C76.3066 95.88 76.8266 97.88 76.8266 100.2ZM65.2666 94.36C64.0932 94.36 63.1066 94.6933 62.3066 95.36C61.5332 96.0267 61.0399 96.9333 60.8266 98.08H69.7066C69.4932 96.9333 68.9866 96.0267 68.1866 95.36C67.4132 94.6933 66.4399 94.36 65.2666 94.36ZM80.3306 81.32H87.9306V111H80.3306V81.32ZM92.8697 81.32H100.47V111H92.8697V81.32ZM116.289 111.36C113.969 111.36 111.875 110.88 110.009 109.92C108.142 108.96 106.675 107.627 105.609 105.92C104.569 104.213 104.049 102.28 104.049 100.12C104.049 97.9867 104.569 96.0667 105.609 94.36C106.675 92.6533 108.129 91.3333 109.969 90.4C111.835 89.44 113.942 88.96 116.289 88.96C118.635 88.96 120.742 89.44 122.609 90.4C124.475 91.3333 125.929 92.6533 126.969 94.36C128.009 96.04 128.529 97.96 128.529 100.12C128.529 102.28 128.009 104.213 126.969 105.92C125.929 107.627 124.475 108.96 122.609 109.92C120.742 110.88 118.635 111.36 116.289 111.36ZM116.289 105.32C117.622 105.32 118.715 104.867 119.569 103.96C120.422 103.027 120.849 101.747 120.849 100.12C120.849 98.52 120.422 97.2667 119.569 96.36C118.715 95.4533 117.622 95 116.289 95C114.955 95 113.862 95.4533 113.009 96.36C112.155 97.2667 111.729 98.52 111.729 100.12C111.729 101.747 112.155 103.027 113.009 103.96C113.862 104.867 114.955 105.32 116.289 105.32ZM135.172 102.36C136.479 102.36 137.559 102.773 138.412 103.6C139.266 104.427 139.692 105.507 139.692 106.84C139.692 107.453 139.612 108.067 139.452 108.68C139.292 109.293 138.932 110.213 138.372 111.44L135.852 117.28H131.092L132.972 110.76C132.226 110.413 131.639 109.907 131.212 109.24C130.812 108.547 130.612 107.747 130.612 106.84C130.612 105.507 131.039 104.427 131.892 103.6C132.746 102.773 133.839 102.36 135.172 102.36ZM59.095 142.5L50.975 167H46.145L40.09 148.87L33.93 167H29.065L20.945 142.5H25.67L31.76 161.12L38.095 142.5H42.295L48.49 161.225L54.755 142.5H59.095ZM78.5504 157.76C78.5504 158.063 78.527 158.495 78.4804 159.055H63.8154C64.072 160.432 64.737 161.528 65.8104 162.345C66.907 163.138 68.2604 163.535 69.8704 163.535C71.9237 163.535 73.6154 162.858 74.9454 161.505L77.2904 164.2C76.4504 165.203 75.3887 165.962 74.1054 166.475C72.822 166.988 71.3754 167.245 69.7654 167.245C67.712 167.245 65.9037 166.837 64.3404 166.02C62.777 165.203 61.5637 164.072 60.7004 162.625C59.8604 161.155 59.4404 159.498 59.4404 157.655C59.4404 155.835 59.8487 154.202 60.6654 152.755C61.5054 151.285 62.6604 150.142 64.1304 149.325C65.6004 148.508 67.257 148.1 69.1004 148.1C70.9204 148.1 72.542 148.508 73.9654 149.325C75.412 150.118 76.532 151.25 77.3254 152.72C78.142 154.167 78.5504 155.847 78.5504 157.76ZM69.1004 151.6C67.7004 151.6 66.5104 152.02 65.5304 152.86C64.5737 153.677 63.9904 154.773 63.7804 156.15H74.3854C74.1987 154.797 73.627 153.7 72.6704 152.86C71.7137 152.02 70.5237 151.6 69.1004 151.6ZM82.7528 141.03H87.1278V167H82.7528V141.03ZM101.445 167.245C99.5083 167.245 97.77 166.837 96.23 166.02C94.69 165.203 93.4883 164.072 92.625 162.625C91.7617 161.155 91.33 159.498 91.33 157.655C91.33 155.812 91.7617 154.167 92.625 152.72C93.4883 151.273 94.6783 150.142 96.195 149.325C97.735 148.508 99.485 148.1 101.445 148.1C103.288 148.1 104.898 148.473 106.275 149.22C107.675 149.967 108.725 151.04 109.425 152.44L106.065 154.4C105.528 153.537 104.852 152.895 104.035 152.475C103.242 152.032 102.367 151.81 101.41 151.81C99.7767 151.81 98.4233 152.347 97.35 153.42C96.2767 154.47 95.74 155.882 95.74 157.655C95.74 159.428 96.265 160.852 97.315 161.925C98.3883 162.975 99.7533 163.5 101.41 163.5C102.367 163.5 103.242 163.29 104.035 162.87C104.852 162.427 105.528 161.773 106.065 160.91L109.425 162.87C108.702 164.27 107.64 165.355 106.24 166.125C104.863 166.872 103.265 167.245 101.445 167.245ZM121.333 167.245C119.443 167.245 117.74 166.837 116.223 166.02C114.707 165.203 113.517 164.072 112.653 162.625C111.813 161.155 111.393 159.498 111.393 157.655C111.393 155.812 111.813 154.167 112.653 152.72C113.517 151.273 114.707 150.142 116.223 149.325C117.74 148.508 119.443 148.1 121.333 148.1C123.247 148.1 124.962 148.508 126.478 149.325C127.995 150.142 129.173 151.273 130.013 152.72C130.877 154.167 131.308 155.812 131.308 157.655C131.308 159.498 130.877 161.155 130.013 162.625C129.173 164.072 127.995 165.203 126.478 166.02C124.962 166.837 123.247 167.245 121.333 167.245ZM121.333 163.5C122.943 163.5 124.273 162.963 125.323 161.89C126.373 160.817 126.898 159.405 126.898 157.655C126.898 155.905 126.373 154.493 125.323 153.42C124.273 152.347 122.943 151.81 121.333 151.81C119.723 151.81 118.393 152.347 117.343 153.42C116.317 154.493 115.803 155.905 115.803 157.655C115.803 159.405 116.317 160.817 117.343 161.89C118.393 162.963 119.723 163.5 121.333 163.5ZM159.082 148.1C161.439 148.1 163.305 148.788 164.682 150.165C166.059 151.518 166.747 153.56 166.747 156.29V167H162.372V156.85C162.372 155.217 162.01 153.992 161.287 153.175C160.564 152.335 159.525 151.915 158.172 151.915C156.702 151.915 155.524 152.405 154.637 153.385C153.75 154.342 153.307 155.718 153.307 157.515V167H148.932V156.85C148.932 155.217 148.57 153.992 147.847 153.175C147.124 152.335 146.085 151.915 144.732 151.915C143.239 151.915 142.049 152.393 141.162 153.35C140.299 154.307 139.867 155.695 139.867 157.515V167H135.492V148.31H139.657V150.69C140.357 149.85 141.232 149.208 142.282 148.765C143.332 148.322 144.499 148.1 145.782 148.1C147.182 148.1 148.419 148.368 149.492 148.905C150.589 149.418 151.452 150.188 152.082 151.215C152.852 150.235 153.844 149.477 155.057 148.94C156.27 148.38 157.612 148.1 159.082 148.1ZM190.079 157.76C190.079 158.063 190.055 158.495 190.009 159.055H175.344C175.6 160.432 176.265 161.528 177.339 162.345C178.435 163.138 179.789 163.535 181.399 163.535C183.452 163.535 185.144 162.858 186.474 161.505L188.819 164.2C187.979 165.203 186.917 165.962 185.634 166.475C184.35 166.988 182.904 167.245 181.294 167.245C179.24 167.245 177.432 166.837 175.869 166.02C174.305 165.203 173.092 164.072 172.229 162.625C171.389 161.155 170.969 159.498 170.969 157.655C170.969 155.835 171.377 154.202 172.194 152.755C173.034 151.285 174.189 150.142 175.659 149.325C177.129 148.508 178.785 148.1 180.629 148.1C182.449 148.1 184.07 148.508 185.494 149.325C186.94 150.118 188.06 151.25 188.854 152.72C189.67 154.167 190.079 155.847 190.079 157.76ZM180.629 151.6C179.229 151.6 178.039 152.02 177.059 152.86C176.102 153.677 175.519 154.773 175.309 156.15H185.914C185.727 154.797 185.155 153.7 184.199 152.86C183.242 152.02 182.052 151.6 180.629 151.6ZM221.734 154.26C223.087 154.703 224.161 155.45 224.954 156.5C225.747 157.527 226.144 158.81 226.144 160.35C226.144 162.473 225.327 164.118 223.694 165.285C222.061 166.428 219.681 167 216.554 167H204.374V142.5H215.854C218.747 142.5 220.976 143.072 222.539 144.215C224.102 145.335 224.884 146.887 224.884 148.87C224.884 150.083 224.604 151.157 224.044 152.09C223.484 153.023 222.714 153.747 221.734 154.26ZM208.924 146.07V152.825H215.364C216.951 152.825 218.164 152.545 219.004 151.985C219.867 151.402 220.299 150.562 220.299 149.465C220.299 148.345 219.867 147.505 219.004 146.945C218.164 146.362 216.951 146.07 215.364 146.07H208.924ZM216.274 163.43C219.797 163.43 221.559 162.252 221.559 159.895C221.559 157.538 219.797 156.36 216.274 156.36H208.924V163.43H216.274ZM237.72 148.1C240.473 148.1 242.573 148.765 244.02 150.095C245.49 151.402 246.225 153.385 246.225 156.045V167H242.095V164.725C241.558 165.542 240.788 166.172 239.785 166.615C238.805 167.035 237.615 167.245 236.215 167.245C234.815 167.245 233.59 167.012 232.54 166.545C231.49 166.055 230.673 165.39 230.09 164.55C229.53 163.687 229.25 162.718 229.25 161.645C229.25 159.965 229.868 158.623 231.105 157.62C232.365 156.593 234.337 156.08 237.02 156.08H241.85V155.8C241.85 154.493 241.453 153.49 240.66 152.79C239.89 152.09 238.735 151.74 237.195 151.74C236.145 151.74 235.107 151.903 234.08 152.23C233.077 152.557 232.225 153.012 231.525 153.595L229.81 150.41C230.79 149.663 231.968 149.092 233.345 148.695C234.722 148.298 236.18 148.1 237.72 148.1ZM237.125 164.06C238.222 164.06 239.19 163.815 240.03 163.325C240.893 162.812 241.5 162.088 241.85 161.155V158.985H237.335C234.815 158.985 233.555 159.813 233.555 161.47C233.555 162.263 233.87 162.893 234.5 163.36C235.13 163.827 236.005 164.06 237.125 164.06ZM260.586 167.245C258.649 167.245 256.911 166.837 255.371 166.02C253.831 165.203 252.629 164.072 251.766 162.625C250.902 161.155 250.471 159.498 250.471 157.655C250.471 155.812 250.902 154.167 251.766 152.72C252.629 151.273 253.819 150.142 255.336 149.325C256.876 148.508 258.626 148.1 260.586 148.1C262.429 148.1 264.039 148.473 265.416 149.22C266.816 149.967 267.866 151.04 268.566 152.44L265.206 154.4C264.669 153.537 263.992 152.895 263.176 152.475C262.382 152.032 261.507 151.81 260.551 151.81C258.917 151.81 257.564 152.347 256.491 153.42C255.417 154.47 254.881 155.882 254.881 157.655C254.881 159.428 255.406 160.852 256.456 161.925C257.529 162.975 258.894 163.5 260.551 163.5C261.507 163.5 262.382 163.29 263.176 162.87C263.992 162.427 264.669 161.773 265.206 160.91L268.566 162.87C267.842 164.27 266.781 165.355 265.381 166.125C264.004 166.872 262.406 167.245 260.586 167.245ZM279.807 158.985L276.552 162.065V167H272.177V141.03H276.552V156.71L285.617 148.31H290.867L283.062 156.15L291.602 167H286.282L279.807 158.985ZM303.54 142.5H308.72L307.845 158.88H304.38L303.54 142.5ZM306.13 167.245C305.314 167.245 304.637 166.988 304.1 166.475C303.564 165.938 303.295 165.285 303.295 164.515C303.295 163.745 303.564 163.103 304.1 162.59C304.637 162.077 305.314 161.82 306.13 161.82C306.924 161.82 307.577 162.077 308.09 162.59C308.627 163.103 308.895 163.745 308.895 164.515C308.895 165.285 308.627 165.938 308.09 166.475C307.577 166.988 306.924 167.245 306.13 167.245Z" fill="#2F2F2F"/>
<defs>
<filter id="filter0_d_130_121" x="-23.0049" y="27.4976" width="257.005" height="257.005" filterUnits="userSpaceOnUse" color-interpolation-filters="sRGB">
<feFlood flood-opacity="0" result="BackgroundImageFix"/>
<feColorMatrix in="SourceAlpha" type="matrix" values="0 0 0 0 0 0 0 0 0 0 0 0 0 0 0 0 0 0 127 0" result="hardAlpha"/>
<feOffset dy="32"/>
<feGaussianBlur stdDeviation="25"/>
<feColorMatrix type="matrix" values="0 0 0 0 1 0 0 0 0 0.827451 0 0 0 0 0.439216 0 0 0 0.45 0"/>
<feBlend mode="normal" in2="BackgroundImageFix" result="effect1_dropShadow_130_121"/>
<feBlend mode="normal" in="SourceGraphic" in2="effect1_dropShadow_130_121" result="shape"/>
</filter>
</defs>
</svg>
