<svg width="14" height="12" viewBox="0 0 14 12" fill="none" xmlns="http://www.w3.org/2000/svg">
<path d="M7.66683 0H10.3335V1.33333H7.66683V0ZM1.00016 3.33333H3.66683V4.66667H1.00016V3.33333ZM1.00016 8.66667H3.66683V10H1.00016V8.66667ZM0.333496 6H2.9935V7.33333H0.333496V6ZM13.4715 2.47133L12.5288 1.52867L11.3908 2.66667C10.6908 2.246 9.87483 2 9.00016 2C6.4275 2 4.3335 4.094 4.3335 6.66667C4.3335 9.23933 6.4275 11.3333 9.00016 11.3333C11.5728 11.3333 13.6668 9.23933 13.6668 6.66667C13.6668 5.45067 13.1948 4.34467 12.4302 3.51333L13.4715 2.47133ZM9.66683 7.33333H8.3335V3.972H9.66683V7.33333Z" fill="#2F2F2F"/>
</svg>


