<svg width="16" height="16" viewBox="0 0 16 16" fill="none" xmlns="http://www.w3.org/2000/svg">
<path d="M14.5482 4.954C14.4235 4.774 14.2188 4.66667 14.0002 4.66667H4.88883L4.1195 2.82C3.9115 2.32133 3.42883 2 2.88883 2H1.3335V3.33333H2.88883L6.0515 10.9233C6.15483 11.1713 6.3975 11.3333 6.66683 11.3333H12.0002C12.2782 11.3333 12.5268 11.1607 12.6248 10.9013L14.6248 5.568C14.7015 5.36267 14.6728 5.13333 14.5482 4.954Z" fill="#2F2F2F"/>
<path d="M7 14C7.55228 14 8 13.5523 8 13C8 12.4477 7.55228 12 7 12C6.44772 12 6 12.4477 6 13C6 13.5523 6.44772 14 7 14Z" fill="#2F2F2F"/>
<path d="M11.6665 14C12.2188 14 12.6665 13.5523 12.6665 13C12.6665 12.4477 12.2188 12 11.6665 12C11.1142 12 10.6665 12.4477 10.6665 13C10.6665 13.5523 11.1142 14 11.6665 14Z" fill="#2F2F2F"/>
</svg>

