<svg width="14" height="10" viewBox="0 0 14 10" fill="none" xmlns="http://www.w3.org/2000/svg">
<path d="M13.0002 0.333313H12.3335H11.0002H3.00016H1.66683H1.00016C0.631496 0.333313 0.333496 0.631313 0.333496 0.99998V1.66665V2.95865V3.66665H0.928829C1.59283 3.66665 2.20883 4.12065 2.3155 4.77598C2.4515 5.61131 1.81016 6.33331 1.00016 6.33331H0.333496V7.04131V8.33331V8.99998C0.333496 9.36865 0.631496 9.66665 1.00016 9.66665H1.66683H3.00016H11.0002H12.3335H13.0002C13.3688 9.66665 13.6668 9.36865 13.6668 8.99998V8.33331V7.04131V6.33331C13.6668 6.33331 13.3688 6.33331 13.0002 6.33331C12.1902 6.33331 11.5488 5.61131 11.6848 4.77598C11.7915 4.12065 12.4075 3.66665 13.0715 3.66665H13.6668V2.95865V1.66665V0.99998C13.6668 0.631313 13.3688 0.333313 13.0002 0.333313ZM5.00016 2.99998C5.36883 2.99998 5.66683 3.29798 5.66683 3.66665C5.66683 4.03531 5.36883 4.33331 5.00016 4.33331C4.6315 4.33331 4.3335 4.03531 4.3335 3.66665C4.3335 3.29798 4.6315 2.99998 5.00016 2.99998ZM4.46683 7.26665L8.46683 1.93331L9.5335 2.73331L5.5335 8.06665L4.46683 7.26665ZM9.00016 6.99998C8.6315 6.99998 8.3335 6.70198 8.3335 6.33331C8.3335 5.96465 8.6315 5.66665 9.00016 5.66665C9.36883 5.66665 9.66683 5.96465 9.66683 6.33331C9.66683 6.70198 9.36883 6.99998 9.00016 6.99998Z" fill="#2F2F2F"/>
</svg>


